# xmcd
#
# Track frame offsets: 
#        150
#        10007
#        21166
#        32078
#        43437
#        54273
#        63265
#        73607
#        83202
#        98642
#        111215
#        119969
#
# Disc length: 2008 seconds
#
# Revision: 0
# Processed by: cddbd v1.5.2PL0 Copyright (c) Steve Scherf et al.
# Submitted via: ExactAudioCopy v0.99pb3
#
DISCID=a007d60c
DTITLE=Eric Clapton - Tribute To Elmore
DYEAR=2008
DGENRE=Blues
TTITLE0=John Mayall's Bluesbreakers (featuring eric clapton) - I'm You
TTITLE0=r Witch Doctor
TTITLE1=The Yardbirds (with eric clapton) - For Your Love
TTITLE2=The Yardbirds (with eric clapton) - Boom Boom
TTITLE3=The Yardbirds (with eric clapton) - Good Morning Little School
TTITLE3=girl
TTITLE4=Eric Clapton and Jimmy Page - Miles Road
TTITLE5=The Yardbirds (with eric clapton) I Aint't Go You
TTITLE6=The Yardbirds (with eric clapton) - A Certain Girl
TTITLE7=Eric Clapton and Jimmy Page - Tribute To Elmore
TTITLE8=The Yardbirds - Train Kept A Rolling
TTITLE9=Eric Clapton - Freight Loader
TTITLE10=The Yardbirds (featuring epic clapton) - Talking About You
TTITLE11=The Yardbirds (featuring eric clapton) - Smokestack Lightning
EXTD=
EXTT0=
EXTT1=
EXTT2=
EXTT3=
EXTT4=
EXTT5=
EXTT6=
EXTT7=
EXTT8=
EXTT9=
EXTT10=
EXTT11=
PLAYORDER=
